<svg xmlns="http://www.w3.org/2000/svg" xmlns:xlink="http://www.w3.org/1999/xlink" width="500" zoomAndPan="magnify" viewBox="0 0 375 374.999991" height="500" preserveAspectRatio="xMidYMid meet" version="1.0"><path fill="#abc3f8" d="M 171.875 265.625 L 203.125 265.625 L 203.125 203.125 L 265.625 203.125 L 265.625 171.875 L 203.125 171.875 L 203.125 109.375 L 171.875 109.375 L 171.875 171.875 L 109.375 171.875 L 109.375 203.125 L 171.875 203.125 Z M 187.5 343.75 C 165.886719 343.75 145.574219 339.648438 126.5625 331.445312 C 107.550781 323.242188 91.015625 312.109375 76.953125 298.046875 C 62.890625 283.984375 51.757812 267.449219 43.554688 248.4375 C 35.351562 229.425781 31.25 209.113281 31.25 187.5 C 31.25 165.886719 35.351562 145.574219 43.554688 126.5625 C 51.757812 107.550781 62.890625 91.015625 76.953125 76.953125 C 91.015625 62.890625 107.550781 51.757812 126.5625 43.554688 C 145.574219 35.351562 165.886719 31.25 187.5 31.25 C 209.113281 31.25 229.425781 35.351562 248.4375 43.554688 C 267.449219 51.757812 283.984375 62.890625 298.046875 76.953125 C 312.109375 91.015625 323.242188 107.550781 331.445312 126.5625 C 339.648438 145.574219 343.75 165.886719 343.75 187.5 C 343.75 209.113281 339.648438 229.425781 331.445312 248.4375 C 323.242188 267.449219 312.109375 283.984375 298.046875 298.046875 C 283.984375 312.109375 267.449219 323.242188 248.4375 331.445312 C 229.425781 339.648438 209.113281 343.75 187.5 343.75 Z M 187.5 312.5 C 222.394531 312.5 251.953125 300.390625 276.171875 276.171875 C 300.390625 251.953125 312.5 222.394531 312.5 187.5 C 312.5 152.605469 300.390625 123.046875 276.171875 98.828125 C 251.953125 74.609375 222.394531 62.5 187.5 62.5 C 152.605469 62.5 123.046875 74.609375 98.828125 98.828125 C 74.609375 123.046875 62.5 152.605469 62.5 187.5 C 62.5 222.394531 74.609375 251.953125 98.828125 276.171875 C 123.046875 300.390625 152.605469 312.5 187.5 312.5 Z M 187.5 187.5 Z M 187.5 187.5 " fill-opacity="1" fill-rule="nonzero"/></svg>