<svg width="162" height="62" viewBox="0 0 162 62" fill="none" xmlns="http://www.w3.org/2000/svg">
<path d="M67.7746 47.1107C63.898 49.1946 59.2115 49.0126 55.3258 46.9469C51.4401 44.8812 46.9174 40.8135 42.4948 33.2332C36.1248 22.3132 26.3878 22.8592 26.3878 22.8592C18.9531 22.8592 13.8298 28.8925 13.8298 36.3272C13.8298 43.7619 18.9531 48.8852 26.3878 48.8852C26.3878 48.8852 37.9448 50.5232 44.9518 35.2352C49.3107 25.7257 55.4168 22.3132 61.6048 22.3132C69.0395 22.3132 74.7998 28.1645 74.7998 35.5992C74.7998 35.5992 74.8817 43.2887 67.7746 47.1107Z" stroke="#ABC3F8" stroke-width="2.73" stroke-miterlimit="10"/>
<path d="M84.2986 26.4757V59.7209H81.206V21.1153H84.0924L84.2986 26.4757ZM103.679 34.7999V35.3411C103.679 37.42 103.438 39.3271 102.957 41.0624C102.476 42.7977 101.78 44.301 100.87 45.5724C99.9762 46.8266 98.8681 47.7973 97.5451 48.4846C96.2222 49.1718 94.7189 49.5154 93.0351 49.5154C91.3686 49.5154 89.8824 49.2577 88.5767 48.7423C87.2709 48.2269 86.1455 47.4967 85.2006 46.5517C84.2728 45.5896 83.5254 44.4728 82.9585 43.2014C82.4087 41.9128 82.0221 40.504 81.7987 38.9749V31.8362C82.0565 30.1525 82.4774 28.6233 83.0616 27.2489C83.6457 25.8744 84.3931 24.6889 85.3037 23.6924C86.2314 22.6959 87.331 21.9314 88.6024 21.3987C89.8738 20.8661 91.3256 20.5998 92.9578 20.5998C94.6587 20.5998 96.1706 20.9349 97.4936 21.6049C98.8337 22.2578 99.9591 23.2113 100.87 24.4655C101.797 25.7026 102.493 27.1973 102.957 28.9498C103.438 30.6851 103.679 32.6351 103.679 34.7999ZM100.586 35.3411V34.7999C100.586 33.1677 100.414 31.6558 100.071 30.2641C99.7443 28.8725 99.2375 27.6612 98.5502 26.6304C97.8802 25.5823 97.0211 24.7662 95.9731 24.1821C94.9422 23.5979 93.7138 23.3058 92.2877 23.3058C90.8102 23.3058 89.5474 23.555 88.4993 24.0532C87.4685 24.5343 86.6094 25.1786 85.9222 25.9861C85.2349 26.7764 84.6937 27.644 84.2986 28.589C83.9034 29.5339 83.6113 30.4617 83.4224 31.3723V39.5934C83.7488 40.8992 84.2728 42.1104 84.9944 43.2272C85.716 44.3268 86.6782 45.2116 87.8808 45.8817C89.1007 46.5345 90.5868 46.861 92.3393 46.861C93.7481 46.861 94.968 46.5689 95.9988 45.9847C97.0297 45.4006 97.8802 44.5845 98.5502 43.5364C99.2375 42.4884 99.7443 41.2686 100.071 39.8769C100.414 38.4852 100.586 36.9733 100.586 35.3411ZM113.962 21.1153V49H110.895V21.1153H113.962ZM110.354 13.0488C110.354 12.4646 110.534 11.975 110.895 11.5798C111.273 11.1675 111.788 10.9613 112.441 10.9613C113.094 10.9613 113.609 11.1675 113.987 11.5798C114.382 11.975 114.58 12.4646 114.58 13.0488C114.58 13.6158 114.382 14.1054 113.987 14.5178C113.609 14.9129 113.094 15.1105 112.441 15.1105C111.788 15.1105 111.273 14.9129 110.895 14.5178C110.534 14.1054 110.354 13.6158 110.354 13.0488ZM127.672 49H124.605V17.6619C124.605 15.7548 124.932 14.1484 125.584 12.8426C126.255 11.5369 127.2 10.5489 128.419 9.87889C129.656 9.20883 131.125 8.8738 132.826 8.8738C133.359 8.8738 133.909 8.90816 134.476 8.97689C135.043 9.02843 135.592 9.14011 136.125 9.31191L135.893 11.9148C135.464 11.7946 135.025 11.7173 134.579 11.6829C134.149 11.6313 133.642 11.6056 133.058 11.6056C131.941 11.6056 130.979 11.8461 130.172 12.3272C129.364 12.7911 128.746 13.4697 128.316 14.3631C127.887 15.2565 127.672 16.3561 127.672 17.6619V49ZM134.321 21.1153V23.6409H119.992V21.1153H134.321ZM148.135 46.2167L156.82 21.1153H160.144L148.341 53.4842C148.1 54.1199 147.791 54.8244 147.413 55.5975C147.052 56.3706 146.571 57.1094 145.97 57.8138C145.386 58.5354 144.647 59.1196 143.753 59.5663C142.877 60.0302 141.803 60.2621 140.532 60.2621C140.206 60.2621 139.785 60.2192 139.269 60.1333C138.771 60.0646 138.41 59.9958 138.187 59.9271L138.161 57.3242C138.35 57.3757 138.625 57.4187 138.986 57.453C139.346 57.4874 139.596 57.5046 139.733 57.5046C140.85 57.5046 141.786 57.3156 142.542 56.9376C143.315 56.5596 143.96 55.9927 144.475 55.2367C144.99 54.4979 145.446 53.5701 145.841 52.4534L148.135 46.2167ZM140.017 21.1153L148.908 45.057L149.732 48.2784L147.49 49.5412L136.666 21.1153H140.017Z" fill="#ABC3F8"/>
<path d="M2 13.6682V59.1682H24.75" stroke="#ABC3F8" stroke-width="2.73"/>
</svg>
