<svg width="27" height="18" viewBox="0 0 27 18" fill="none" xmlns="http://www.w3.org/2000/svg">
<path d="M0.705 17.5642C0.505278 17.5642 0.337916 17.496 0.202916 17.3596C0.0676387 17.2232 0 17.0542 0 16.8525C0 16.6511 0.0676387 16.4843 0.202916 16.3521C0.337916 16.2199 0.505278 16.1538 0.705 16.1538H25.9617C26.1614 16.1538 26.3288 16.2219 26.4638 16.3583C26.599 16.4947 26.6667 16.6638 26.6667 16.8654C26.6667 17.0671 26.599 17.2339 26.4638 17.3658C26.3288 17.4981 26.1614 17.5642 25.9617 17.5642H0.705ZM0.705 9.48708C0.505278 9.48708 0.337916 9.41889 0.202916 9.2825C0.0676387 9.14611 0 8.97722 0 8.77583C0 8.57417 0.0676387 8.40722 0.202916 8.275C0.337916 8.14306 0.505278 8.07708 0.705 8.07708H25.9617C26.1614 8.07708 26.3288 8.14528 26.4638 8.28167C26.599 8.41806 26.6667 8.58695 26.6667 8.78833C26.6667 8.99 26.599 9.15695 26.4638 9.28917C26.3288 9.42111 26.1614 9.48708 25.9617 9.48708H0.705ZM0.705 1.41042C0.505278 1.41042 0.337916 1.34222 0.202916 1.20583C0.0676387 1.06944 0 0.900418 0 0.698751C0 0.497084 0.0676387 0.330278 0.202916 0.198334C0.337916 0.0661115 0.505278 0 0.705 0H25.9617C26.1614 0 26.3288 0.0681959 26.4638 0.204585C26.599 0.340974 26.6667 0.510001 26.6667 0.711667C26.6667 0.913056 26.599 1.07986 26.4638 1.21208C26.3288 1.34431 26.1614 1.41042 25.9617 1.41042H0.705Z" fill="#ABC3F8"/>
</svg>
