<?xml version="1.0" encoding="UTF-8"?>
<svg id="Lager_1" data-name="Lager 1" xmlns="http://www.w3.org/2000/svg" viewBox="0 0 40 40">
  <defs>
    <style>
      .cls-1 {
        fill: #abc3f8;
      }
    </style>
  </defs>
  <path class="cls-1" d="M13.33,29.04V10.79c0-.42.14-.75.42-1.01.28-.25.6-.38.98-.38.12,0,.24.02.37.05.13.03.25.08.36.15l14.36,9.15c.21.15.37.32.48.51.11.19.16.41.16.65s-.05.46-.16.65c-.11.19-.27.37-.48.51l-14.36,9.15c-.12.06-.24.11-.37.15-.13.03-.25.05-.37.05-.37,0-.7-.13-.98-.38-.28-.25-.42-.59-.42-1.01Z"/>
</svg>