<svg width="29" height="29" viewBox="0 0 29 29" fill="none" xmlns="http://www.w3.org/2000/svg">
<path d="M14.3121 19.8313C15.2393 19.8313 16.0256 19.5119 16.6708 18.8733C17.3161 18.2344 17.6388 17.454 17.6388 16.5321V6.56208H22.1217V4.25417H16.3567V14.1496C16.0897 13.869 15.7824 13.6504 15.4346 13.4937C15.0868 13.3371 14.7126 13.2588 14.3121 13.2588C13.4049 13.2588 12.6371 13.5733 12.0088 14.2025C11.3804 14.8317 11.0663 15.6115 11.0663 16.5421C11.0663 17.4443 11.3804 18.2181 12.0088 18.8633C12.6371 19.5086 13.4049 19.8313 14.3121 19.8313ZM6.92292 23.8463C6.24042 23.8463 5.66375 23.611 5.19292 23.1404C4.72236 22.6696 4.48708 22.0929 4.48708 21.4104V2.43583C4.48708 1.75306 4.72236 1.17639 5.19292 0.705833C5.66375 0.235278 6.24042 0 6.92292 0H25.8975C26.5803 0 27.1569 0.235278 27.6275 0.705833C28.0981 1.17639 28.3333 1.75306 28.3333 2.43583V21.4104C28.3333 22.0929 28.0981 22.6696 27.6275 23.1404C27.1569 23.611 26.5803 23.8463 25.8975 23.8463H6.92292ZM6.92292 22.4358H25.8975C26.1539 22.4358 26.3889 22.329 26.6025 22.1154C26.8161 21.9018 26.9229 21.6668 26.9229 21.4104V2.43583C26.9229 2.17945 26.8161 1.94444 26.6025 1.73083C26.3889 1.51722 26.1539 1.41042 25.8975 1.41042H6.92292C6.66653 1.41042 6.43153 1.51722 6.21792 1.73083C6.00431 1.94444 5.8975 2.17945 5.8975 2.43583V21.4104C5.8975 21.6668 6.00431 21.9018 6.21792 22.1154C6.43153 22.329 6.66653 22.4358 6.92292 22.4358ZM2.43583 28.3333C1.75306 28.3333 1.17639 28.0981 0.705833 27.6275C0.235278 27.1569 0 26.5803 0 25.8975V5.51292H1.41042V25.8975C1.41042 26.1539 1.51722 26.3889 1.73083 26.6025C1.94444 26.8161 2.17944 26.9229 2.43583 26.9229H22.8204V28.3333H2.43583Z" fill="#ABC3F8"/>
</svg>
