<svg width="29" height="29" viewBox="0 0 29 29" fill="none" xmlns="http://www.w3.org/2000/svg">
<path d="M10.1471 20.2154C7.31347 20.2154 4.91389 19.2329 2.94833 17.2679C0.982778 15.3029 0 12.9161 0 10.1075C0 7.29917 0.9825 4.9125 2.9475 2.9475C4.9125 0.9825 7.30125 0 10.1138 0C12.9263 0 15.3147 0.9825 17.2792 2.9475C19.2439 4.9125 20.2263 7.29931 20.2263 10.1079C20.2263 11.2829 20.0264 12.4196 19.6267 13.5179C19.2272 14.6163 18.6643 15.5981 17.9379 16.4633L27.8992 26.38C28.1 26.5728 28.2032 26.8213 28.2088 27.1254C28.214 27.4299 28.1108 27.6861 27.8992 27.8942C27.6878 28.1019 27.4325 28.2058 27.1333 28.2058C26.8344 28.2058 26.5833 28.1001 26.38 27.8888L16.4463 17.955C15.6157 18.6733 14.6518 19.2297 13.5546 19.6242C12.4571 20.0183 11.3213 20.2154 10.1471 20.2154ZM10.13 18.1217C12.3636 18.1217 14.2557 17.3444 15.8063 15.79C17.3568 14.2353 18.1321 12.3411 18.1321 10.1075C18.1321 7.87389 17.3568 5.97986 15.8063 4.42542C14.2557 2.87097 12.3636 2.09375 10.13 2.09375C7.88694 2.09375 5.98681 2.87097 4.42958 4.42542C2.87236 5.97986 2.09375 7.87389 2.09375 10.1075C2.09375 12.3411 2.87236 14.2353 4.42958 15.79C5.98681 17.3444 7.88694 18.1217 10.13 18.1217Z" fill="#ABC3F8"/>
</svg>
